<mxfile host="app.diagrams.net" modified="2024-02-18T07:01:03.139Z" agent="Mozilla/5.0 (Macintosh; Intel Mac OS X 10_15_7) AppleWebKit/537.36 (KHTML, like Gecko) Chrome/121.0.0.0 Safari/537.36" etag="WOle7pMB9L7DgmnwvKr4" version="23.1.1" type="github">
  <diagram id="prtHgNgQTEPvFCAcTncT" name="Page-1">
    <mxGraphModel dx="830" dy="423" grid="1" gridSize="10" guides="1" tooltips="1" connect="1" arrows="1" fold="1" page="1" pageScale="1" pageWidth="827" pageHeight="1169" math="0" shadow="0">
      <root>
        <mxCell id="0" />
        <mxCell id="1" parent="0" />
        <mxCell id="V81XMG08OZuuRSj7IIeJ-1" value="风控回调-准备征信数据-征信上报" style="swimlane;childLayout=stackLayout;resizeParent=1;resizeParentMax=0;startSize=20;html=1;labelBackgroundColor=none;fillColor=#B2C9AB;strokeColor=#788AA3;fontColor=#46495D;" vertex="1" parent="1">
          <mxGeometry x="120" y="240" width="830" height="1160" as="geometry" />
        </mxCell>
        <mxCell id="V81XMG08OZuuRSj7IIeJ-2" value="风控服务" style="swimlane;startSize=20;html=1;labelBackgroundColor=none;fillColor=#B2C9AB;strokeColor=#788AA3;fontColor=#46495D;" vertex="1" parent="V81XMG08OZuuRSj7IIeJ-1">
          <mxGeometry y="20" width="210" height="1140" as="geometry" />
        </mxCell>
        <mxCell id="V81XMG08OZuuRSj7IIeJ-5" value="回调请求接口" style="rounded=0;whiteSpace=wrap;html=1;strokeColor=#788AA3;fontColor=#46495D;fillColor=#B2C9AB;" vertex="1" parent="V81XMG08OZuuRSj7IIeJ-2">
          <mxGeometry x="45" y="50" width="120" height="60" as="geometry" />
        </mxCell>
        <mxCell id="V81XMG08OZuuRSj7IIeJ-12" value="选择征信渠道接口" style="rounded=0;whiteSpace=wrap;html=1;strokeColor=#788AA3;fontColor=#46495D;fillColor=#B2C9AB;" vertex="1" parent="V81XMG08OZuuRSj7IIeJ-2">
          <mxGeometry x="45" y="190" width="120" height="60" as="geometry" />
        </mxCell>
        <mxCell id="V81XMG08OZuuRSj7IIeJ-17" value="征信查询状态" style="rounded=0;whiteSpace=wrap;html=1;strokeColor=#788AA3;fontColor=#46495D;fillColor=#B2C9AB;" vertex="1" parent="V81XMG08OZuuRSj7IIeJ-2">
          <mxGeometry x="45" y="330" width="120" height="60" as="geometry" />
        </mxCell>
        <mxCell id="V81XMG08OZuuRSj7IIeJ-37" value="征信查询受理接口" style="whiteSpace=wrap;html=1;fillColor=#B2C9AB;strokeColor=#788AA3;fontColor=#46495D;rounded=0;" vertex="1" parent="V81XMG08OZuuRSj7IIeJ-2">
          <mxGeometry x="45" y="940" width="120" height="60" as="geometry" />
        </mxCell>
        <mxCell id="V81XMG08OZuuRSj7IIeJ-42" value="接收征信上报结果" style="whiteSpace=wrap;html=1;fillColor=#B2C9AB;strokeColor=#788AA3;fontColor=#46495D;rounded=0;" vertex="1" parent="V81XMG08OZuuRSj7IIeJ-2">
          <mxGeometry x="45" y="1060" width="120" height="60" as="geometry" />
        </mxCell>
        <mxCell id="V81XMG08OZuuRSj7IIeJ-3" value="xyf-credit-system" style="swimlane;startSize=20;html=1;labelBackgroundColor=none;fillColor=#B2C9AB;strokeColor=#788AA3;fontColor=#46495D;" vertex="1" parent="V81XMG08OZuuRSj7IIeJ-1">
          <mxGeometry x="210" y="20" width="420" height="1140" as="geometry" />
        </mxCell>
        <mxCell id="V81XMG08OZuuRSj7IIeJ-11" value="" style="edgeStyle=orthogonalEdgeStyle;rounded=1;orthogonalLoop=1;jettySize=auto;html=1;strokeColor=#788AA3;fontColor=#46495D;fillColor=#B2C9AB;curved=0;" edge="1" parent="V81XMG08OZuuRSj7IIeJ-3" source="V81XMG08OZuuRSj7IIeJ-6" target="V81XMG08OZuuRSj7IIeJ-10">
          <mxGeometry relative="1" as="geometry" />
        </mxCell>
        <mxCell id="V81XMG08OZuuRSj7IIeJ-6" value="准备征信数据-征信上报接口" style="rounded=0;whiteSpace=wrap;html=1;strokeColor=#788AA3;fontColor=#46495D;fillColor=#B2C9AB;" vertex="1" parent="V81XMG08OZuuRSj7IIeJ-3">
          <mxGeometry x="200" y="50" width="120" height="60" as="geometry" />
        </mxCell>
        <mxCell id="V81XMG08OZuuRSj7IIeJ-16" value="" style="edgeStyle=orthogonalEdgeStyle;shape=connector;curved=0;rounded=1;orthogonalLoop=1;jettySize=auto;html=1;labelBackgroundColor=default;strokeColor=#788AA3;align=center;verticalAlign=middle;fontFamily=Helvetica;fontSize=11;fontColor=#46495D;endArrow=classic;fillColor=#B2C9AB;" edge="1" parent="V81XMG08OZuuRSj7IIeJ-3" source="V81XMG08OZuuRSj7IIeJ-10" target="V81XMG08OZuuRSj7IIeJ-15">
          <mxGeometry relative="1" as="geometry" />
        </mxCell>
        <mxCell id="V81XMG08OZuuRSj7IIeJ-10" value="选择征信渠道" style="rounded=0;whiteSpace=wrap;html=1;strokeColor=#788AA3;fontColor=#46495D;fillColor=#B2C9AB;" vertex="1" parent="V81XMG08OZuuRSj7IIeJ-3">
          <mxGeometry x="200" y="190" width="120" height="60" as="geometry" />
        </mxCell>
        <mxCell id="V81XMG08OZuuRSj7IIeJ-21" value="" style="edgeStyle=orthogonalEdgeStyle;shape=connector;curved=0;rounded=1;orthogonalLoop=1;jettySize=auto;html=1;labelBackgroundColor=default;strokeColor=#788AA3;align=center;verticalAlign=middle;fontFamily=Helvetica;fontSize=11;fontColor=#46495D;endArrow=classic;fillColor=#B2C9AB;" edge="1" parent="V81XMG08OZuuRSj7IIeJ-3" source="V81XMG08OZuuRSj7IIeJ-15" target="V81XMG08OZuuRSj7IIeJ-20">
          <mxGeometry relative="1" as="geometry" />
        </mxCell>
        <mxCell id="V81XMG08OZuuRSj7IIeJ-15" value="已经上报过征信的查询征信上报结果" style="rounded=0;whiteSpace=wrap;html=1;strokeColor=#788AA3;fontColor=#46495D;fillColor=#B2C9AB;" vertex="1" parent="V81XMG08OZuuRSj7IIeJ-3">
          <mxGeometry x="200" y="330" width="120" height="60" as="geometry" />
        </mxCell>
        <mxCell id="V81XMG08OZuuRSj7IIeJ-23" value="" style="edgeStyle=orthogonalEdgeStyle;shape=connector;curved=0;rounded=1;orthogonalLoop=1;jettySize=auto;html=1;labelBackgroundColor=default;strokeColor=#788AA3;align=center;verticalAlign=middle;fontFamily=Helvetica;fontSize=11;fontColor=#46495D;endArrow=classic;fillColor=#B2C9AB;" edge="1" parent="V81XMG08OZuuRSj7IIeJ-3" source="V81XMG08OZuuRSj7IIeJ-20" target="V81XMG08OZuuRSj7IIeJ-22">
          <mxGeometry relative="1" as="geometry" />
        </mxCell>
        <mxCell id="V81XMG08OZuuRSj7IIeJ-20" value="结果需要上报征信的准备上报材料" style="rounded=0;whiteSpace=wrap;html=1;strokeColor=#788AA3;fontColor=#46495D;fillColor=#B2C9AB;" vertex="1" parent="V81XMG08OZuuRSj7IIeJ-3">
          <mxGeometry x="200" y="460" width="120" height="60" as="geometry" />
        </mxCell>
        <mxCell id="V81XMG08OZuuRSj7IIeJ-28" value="" style="edgeStyle=orthogonalEdgeStyle;shape=connector;curved=0;rounded=1;orthogonalLoop=1;jettySize=auto;html=1;labelBackgroundColor=default;strokeColor=#788AA3;align=center;verticalAlign=middle;fontFamily=Helvetica;fontSize=11;fontColor=#46495D;endArrow=classic;fillColor=#B2C9AB;" edge="1" parent="V81XMG08OZuuRSj7IIeJ-3" source="V81XMG08OZuuRSj7IIeJ-22" target="V81XMG08OZuuRSj7IIeJ-27">
          <mxGeometry relative="1" as="geometry" />
        </mxCell>
        <mxCell id="V81XMG08OZuuRSj7IIeJ-22" value="请求生成授信合同" style="rounded=0;whiteSpace=wrap;html=1;strokeColor=#788AA3;fontColor=#46495D;fillColor=#B2C9AB;" vertex="1" parent="V81XMG08OZuuRSj7IIeJ-3">
          <mxGeometry x="100" y="580" width="120" height="60" as="geometry" />
        </mxCell>
        <mxCell id="V81XMG08OZuuRSj7IIeJ-34" value="" style="edgeStyle=orthogonalEdgeStyle;shape=connector;curved=0;rounded=1;orthogonalLoop=1;jettySize=auto;html=1;labelBackgroundColor=default;strokeColor=#788AA3;align=center;verticalAlign=middle;fontFamily=Helvetica;fontSize=11;fontColor=#46495D;endArrow=classic;fillColor=#B2C9AB;" edge="1" parent="V81XMG08OZuuRSj7IIeJ-3" source="V81XMG08OZuuRSj7IIeJ-27" target="V81XMG08OZuuRSj7IIeJ-33">
          <mxGeometry relative="1" as="geometry" />
        </mxCell>
        <mxCell id="V81XMG08OZuuRSj7IIeJ-27" value="请求获取合同链接" style="rounded=0;whiteSpace=wrap;html=1;strokeColor=#788AA3;fontColor=#46495D;fillColor=#B2C9AB;" vertex="1" parent="V81XMG08OZuuRSj7IIeJ-3">
          <mxGeometry x="100" y="690" width="120" height="60" as="geometry" />
        </mxCell>
        <mxCell id="V81XMG08OZuuRSj7IIeJ-36" value="" style="edgeStyle=orthogonalEdgeStyle;shape=connector;curved=0;rounded=1;orthogonalLoop=1;jettySize=auto;html=1;labelBackgroundColor=default;strokeColor=#788AA3;align=center;verticalAlign=middle;fontFamily=Helvetica;fontSize=11;fontColor=#46495D;endArrow=classic;fillColor=#B2C9AB;" edge="1" parent="V81XMG08OZuuRSj7IIeJ-3" source="V81XMG08OZuuRSj7IIeJ-33" target="V81XMG08OZuuRSj7IIeJ-35">
          <mxGeometry relative="1" as="geometry" />
        </mxCell>
        <mxCell id="V81XMG08OZuuRSj7IIeJ-33" value="查询FaceIdCard、FaceVerify表获取ocr和face地址" style="rounded=0;whiteSpace=wrap;html=1;strokeColor=#788AA3;fontColor=#46495D;fillColor=#B2C9AB;" vertex="1" parent="V81XMG08OZuuRSj7IIeJ-3">
          <mxGeometry x="100" y="810" width="120" height="60" as="geometry" />
        </mxCell>
        <mxCell id="V81XMG08OZuuRSj7IIeJ-41" value="" style="edgeStyle=orthogonalEdgeStyle;shape=connector;curved=0;rounded=1;orthogonalLoop=1;jettySize=auto;html=1;labelBackgroundColor=default;strokeColor=#788AA3;align=center;verticalAlign=middle;fontFamily=Helvetica;fontSize=11;fontColor=#46495D;endArrow=classic;fillColor=#B2C9AB;" edge="1" parent="V81XMG08OZuuRSj7IIeJ-3" source="V81XMG08OZuuRSj7IIeJ-35" target="V81XMG08OZuuRSj7IIeJ-40">
          <mxGeometry relative="1" as="geometry" />
        </mxCell>
        <mxCell id="V81XMG08OZuuRSj7IIeJ-35" value="请求征信查询受理接口" style="rounded=0;whiteSpace=wrap;html=1;strokeColor=#788AA3;fontColor=#46495D;fillColor=#B2C9AB;" vertex="1" parent="V81XMG08OZuuRSj7IIeJ-3">
          <mxGeometry x="210" y="940" width="120" height="60" as="geometry" />
        </mxCell>
        <mxCell id="V81XMG08OZuuRSj7IIeJ-40" value="返回征信上报结果" style="rounded=0;whiteSpace=wrap;html=1;strokeColor=#788AA3;fontColor=#46495D;fillColor=#B2C9AB;" vertex="1" parent="V81XMG08OZuuRSj7IIeJ-3">
          <mxGeometry x="210" y="1060" width="120" height="60" as="geometry" />
        </mxCell>
        <mxCell id="V81XMG08OZuuRSj7IIeJ-4" value="合同系统" style="swimlane;startSize=20;html=1;labelBackgroundColor=none;fillColor=#B2C9AB;strokeColor=#788AA3;fontColor=#46495D;" vertex="1" parent="V81XMG08OZuuRSj7IIeJ-1">
          <mxGeometry x="630" y="20" width="200" height="1140" as="geometry" />
        </mxCell>
        <mxCell id="V81XMG08OZuuRSj7IIeJ-24" value="生成授信合同接口" style="whiteSpace=wrap;html=1;fillColor=#B2C9AB;strokeColor=#788AA3;fontColor=#46495D;rounded=0;" vertex="1" parent="V81XMG08OZuuRSj7IIeJ-4">
          <mxGeometry x="50" y="580" width="120" height="60" as="geometry" />
        </mxCell>
        <mxCell id="V81XMG08OZuuRSj7IIeJ-29" value="获取合同链接接口" style="whiteSpace=wrap;html=1;fillColor=#B2C9AB;strokeColor=#788AA3;fontColor=#46495D;rounded=0;" vertex="1" parent="V81XMG08OZuuRSj7IIeJ-4">
          <mxGeometry x="50" y="690" width="120" height="60" as="geometry" />
        </mxCell>
        <mxCell id="V81XMG08OZuuRSj7IIeJ-7" style="edgeStyle=orthogonalEdgeStyle;rounded=0;orthogonalLoop=1;jettySize=auto;html=1;entryX=0;entryY=0.5;entryDx=0;entryDy=0;strokeColor=#788AA3;fontColor=#46495D;fillColor=#B2C9AB;" edge="1" parent="V81XMG08OZuuRSj7IIeJ-1" source="V81XMG08OZuuRSj7IIeJ-5" target="V81XMG08OZuuRSj7IIeJ-6">
          <mxGeometry relative="1" as="geometry" />
        </mxCell>
        <mxCell id="V81XMG08OZuuRSj7IIeJ-9" value="v2/credit/activation-credit-inquiry" style="edgeLabel;html=1;align=center;verticalAlign=middle;resizable=0;points=[];fontColor=#46495D;" vertex="1" connectable="0" parent="V81XMG08OZuuRSj7IIeJ-7">
          <mxGeometry x="-0.2784" y="-3" relative="1" as="geometry">
            <mxPoint x="37" y="-3" as="offset" />
          </mxGeometry>
        </mxCell>
        <mxCell id="V81XMG08OZuuRSj7IIeJ-13" value="" style="edgeStyle=orthogonalEdgeStyle;rounded=0;orthogonalLoop=1;jettySize=auto;html=1;strokeColor=#788AA3;fontColor=#46495D;fillColor=#B2C9AB;" edge="1" parent="V81XMG08OZuuRSj7IIeJ-1" source="V81XMG08OZuuRSj7IIeJ-10" target="V81XMG08OZuuRSj7IIeJ-12">
          <mxGeometry relative="1" as="geometry" />
        </mxCell>
        <mxCell id="V81XMG08OZuuRSj7IIeJ-14" value="strategyTree/credit_channel_select" style="edgeLabel;align=center;verticalAlign=middle;resizable=0;points=[];fontColor=#46495D;" vertex="1" connectable="0" parent="V81XMG08OZuuRSj7IIeJ-13">
          <mxGeometry x="0.2923" y="-3" relative="1" as="geometry">
            <mxPoint x="59" y="3" as="offset" />
          </mxGeometry>
        </mxCell>
        <mxCell id="V81XMG08OZuuRSj7IIeJ-18" value="" style="edgeStyle=orthogonalEdgeStyle;shape=connector;curved=0;rounded=1;orthogonalLoop=1;jettySize=auto;html=1;labelBackgroundColor=default;strokeColor=#788AA3;align=center;verticalAlign=middle;fontFamily=Helvetica;fontSize=11;fontColor=#46495D;endArrow=classic;fillColor=#B2C9AB;" edge="1" parent="V81XMG08OZuuRSj7IIeJ-1" source="V81XMG08OZuuRSj7IIeJ-15" target="V81XMG08OZuuRSj7IIeJ-17">
          <mxGeometry relative="1" as="geometry" />
        </mxCell>
        <mxCell id="V81XMG08OZuuRSj7IIeJ-19" value="credit-inquiry/status" style="edgeLabel;align=center;verticalAlign=middle;resizable=0;points=[];fontSize=11;fontFamily=Helvetica;fontColor=#46495D;" vertex="1" connectable="0" parent="V81XMG08OZuuRSj7IIeJ-18">
          <mxGeometry x="0.2273" y="-1" relative="1" as="geometry">
            <mxPoint x="34" y="1" as="offset" />
          </mxGeometry>
        </mxCell>
        <mxCell id="V81XMG08OZuuRSj7IIeJ-25" value="" style="edgeStyle=orthogonalEdgeStyle;shape=connector;curved=0;rounded=1;orthogonalLoop=1;jettySize=auto;html=1;labelBackgroundColor=default;strokeColor=#788AA3;align=center;verticalAlign=middle;fontFamily=Helvetica;fontSize=11;fontColor=#46495D;endArrow=classic;fillColor=#B2C9AB;" edge="1" parent="V81XMG08OZuuRSj7IIeJ-1" source="V81XMG08OZuuRSj7IIeJ-22" target="V81XMG08OZuuRSj7IIeJ-24">
          <mxGeometry relative="1" as="geometry" />
        </mxCell>
        <mxCell id="V81XMG08OZuuRSj7IIeJ-26" value="other/generate-and-sign" style="edgeLabel;align=center;verticalAlign=middle;resizable=0;points=[];fontSize=11;fontFamily=Helvetica;fontColor=#46495D;" vertex="1" connectable="0" parent="V81XMG08OZuuRSj7IIeJ-25">
          <mxGeometry x="-0.024" y="1" relative="1" as="geometry">
            <mxPoint as="offset" />
          </mxGeometry>
        </mxCell>
        <mxCell id="V81XMG08OZuuRSj7IIeJ-30" value="" style="edgeStyle=orthogonalEdgeStyle;shape=connector;curved=0;rounded=1;orthogonalLoop=1;jettySize=auto;html=1;labelBackgroundColor=default;strokeColor=#788AA3;align=center;verticalAlign=middle;fontFamily=Helvetica;fontSize=11;fontColor=#46495D;endArrow=classic;fillColor=#B2C9AB;" edge="1" parent="V81XMG08OZuuRSj7IIeJ-1" source="V81XMG08OZuuRSj7IIeJ-27" target="V81XMG08OZuuRSj7IIeJ-29">
          <mxGeometry relative="1" as="geometry" />
        </mxCell>
        <mxCell id="V81XMG08OZuuRSj7IIeJ-32" value="other/sub-contract-list" style="edgeLabel;align=center;verticalAlign=middle;resizable=0;points=[];fontSize=11;fontFamily=Helvetica;fontColor=#46495D;" vertex="1" connectable="0" parent="V81XMG08OZuuRSj7IIeJ-30">
          <mxGeometry x="-0.1904" y="-1" relative="1" as="geometry">
            <mxPoint as="offset" />
          </mxGeometry>
        </mxCell>
        <mxCell id="V81XMG08OZuuRSj7IIeJ-38" value="" style="edgeStyle=orthogonalEdgeStyle;shape=connector;curved=0;rounded=1;orthogonalLoop=1;jettySize=auto;html=1;labelBackgroundColor=default;strokeColor=#788AA3;align=center;verticalAlign=middle;fontFamily=Helvetica;fontSize=11;fontColor=#46495D;endArrow=classic;fillColor=#B2C9AB;" edge="1" parent="V81XMG08OZuuRSj7IIeJ-1" source="V81XMG08OZuuRSj7IIeJ-35" target="V81XMG08OZuuRSj7IIeJ-37">
          <mxGeometry relative="1" as="geometry" />
        </mxCell>
        <mxCell id="V81XMG08OZuuRSj7IIeJ-39" value="credit-inquiry/request" style="edgeLabel;align=center;verticalAlign=middle;resizable=0;points=[];fontSize=11;fontFamily=Helvetica;fontColor=#46495D;" vertex="1" connectable="0" parent="V81XMG08OZuuRSj7IIeJ-38">
          <mxGeometry x="0.029" y="-1" relative="1" as="geometry">
            <mxPoint as="offset" />
          </mxGeometry>
        </mxCell>
        <mxCell id="V81XMG08OZuuRSj7IIeJ-43" value="" style="edgeStyle=orthogonalEdgeStyle;shape=connector;curved=0;rounded=1;orthogonalLoop=1;jettySize=auto;html=1;labelBackgroundColor=default;strokeColor=#788AA3;align=center;verticalAlign=middle;fontFamily=Helvetica;fontSize=11;fontColor=#46495D;endArrow=classic;fillColor=#B2C9AB;" edge="1" parent="V81XMG08OZuuRSj7IIeJ-1" source="V81XMG08OZuuRSj7IIeJ-40" target="V81XMG08OZuuRSj7IIeJ-42">
          <mxGeometry relative="1" as="geometry" />
        </mxCell>
      </root>
    </mxGraphModel>
  </diagram>
</mxfile>
